<?xml version="1.0" encoding="UTF-8"?>
<!DOCTYPE svg PUBLIC "-//W3C//DTD SVG 1.1//EN" "http://www.w3.org/Graphics/SVG/1.1/DTD/svg11.dtd">
<!-- Creator: CorelDRAW -->
<svg xmlns="http://www.w3.org/2000/svg" xml:space="preserve" width="352.572mm" height="350.704mm" version="1.1" style="shape-rendering:geometricPrecision; text-rendering:geometricPrecision; image-rendering:optimizeQuality; fill-rule:evenodd; clip-rule:evenodd"
viewBox="0 0 4270.04 4247.41"
 xmlns:xlink="http://www.w3.org/1999/xlink"
 xmlns:xodm="http://www.corel.com/coreldraw/odm/2003">
 <defs>
  <style type="text/css">
   <![CDATA[
    .str6 {stroke:#2B2A29;stroke-width:36.33;stroke-miterlimit:22.9256}
    .str4 {stroke:#002151;stroke-width:36.33;stroke-miterlimit:22.9256}
    .str8 {stroke:#091724;stroke-width:36.33;stroke-miterlimit:22.9256}
    .str7 {stroke:#091724;stroke-width:36.33;stroke-miterlimit:22.9256}
    .str5 {stroke:#092145;stroke-width:36.33;stroke-miterlimit:22.9256}
    .str2 {stroke:#8EB5C6;stroke-width:36.33;stroke-miterlimit:22.9256}
    .str1 {stroke:#97BFCB;stroke-width:36.33;stroke-miterlimit:22.9256}
    .str0 {stroke:#9B1411;stroke-width:36.33;stroke-miterlimit:22.9256}
    .str3 {stroke:#D8AF53;stroke-width:36.33;stroke-miterlimit:22.9256}
    .fil1 {fill:none}
    .fil6 {fill:#2D71B8}
    .fil9 {fill:#3C89D1}
    .fil7 {fill:#3C89D1}
    .fil13 {fill:#3F7B23}
    .fil11 {fill:#40841F}
    .fil12 {fill:#40841F}
    .fil8 {fill:#47A9E6}
    .fil14 {fill:#65A930}
    .fil4 {fill:#68BBED}
    .fil10 {fill:#794C25}
    .fil5 {fill:#B0DEF6}
    .fil15 {fill:#F3EDB1}
    .fil0 {fill:#F95F19}
    .fil2 {fill:#F9C823}
    .fil3 {fill:#F9C823}
   ]]>
  </style>
      <clipPath id="id0">
       <path d="M161.04 2768.16c2.3,66.45 4.15,133.04 27.02,193.62 38.15,115.95 115.89,214.69 220.64,301.69 7.21,98.83 3.32,203.21 65.29,274.67 68.24,39.96 68.73,-45.55 58.54,-150.84 171.03,235.82 356.97,439.31 580.86,560.59 -138.4,-177.88 -263.52,-360.59 -353.47,-556.09 28.58,-254.36 0.29,-495.6 -99.06,-720.44 134.5,-148.48 254.04,-306.93 362.47,-472.79 75.45,-75.47 208.18,-134.57 364.72,-186.86 135.12,-92.67 242.22,-199.34 321.95,-319.7 -202.63,-23.26 -405.25,-46.53 -607.87,-69.79 -219.13,216.13 -438.27,432.27 -657.4,648.4 -94.56,165.85 -189.12,331.7 -283.67,497.56z"/>
      </clipPath>
       <clipPath id="id1">
        <path d="M95.84 2916.88c198.66,-65.17 381.28,-180.63 508.19,-470.82 34.27,-175.35 102.04,-333.57 276.51,-437.19 123.9,-158.15 240.37,-230.84 351.25,-239.15 146.53,9.66 288.75,7.49 422.24,-18.68 43.4,-24.53 93.52,-45.03 153.2,-59.79 52.36,21.01 105.51,39.25 164.41,37.37 196.81,-43.96 349.41,16.56 474.56,141.99 -28.84,-163.88 -93.66,-289.88 -184.39,-388.61 -71.74,-88.25 -166.76,-167.41 -229.55,-192 -52.32,-20.49 -99.61,10.21 -166.01,33.34 -73.92,-127.18 -150.69,-250.37 -273.85,-308.63 -47.08,-3.54 -93.11,-1.88 -136.93,10.87 -106.06,88.37 -199.29,182.23 -282.55,280.37 -44.92,-16.66 -89.84,-33.33 -134.75,-49.99 -81.87,87.66 -163.73,175.32 -245.6,262.99 -95.04,-33.82 -166.97,-15.61 -221.69,41.3 -190.81,218.46 -396.13,420.29 -467.29,775.92 -16.06,65.2 -28.54,130.41 -30.43,195.61 9.53,36.76 26.33,71.91 65.2,102.15 -38.07,95.65 -63.16,190.57 -42.53,282.96z"/>
       </clipPath>
 </defs>
 <g id="Слой_x0020_1">
  <metadata id="CorelCorpID_0Corel-Layer"/>
  <g id="_1822256217072">
   <g>
    <path class="fil0 str0" d="M3025.66 164.46c17.35,27.56 32.74,55.51 34.94,86.1 -4.7,33.21 -1.98,67.34 17.47,103.56 48.28,58.99 142.68,2.53 41.18,-133.51 -26.82,-27.47 -57.71,-46.78 -93.58,-56.15z"/>
    <path class="fil0 str0" d="M2374.98 18.26c199.5,57.25 381.5,146.46 476.4,394.73 21.11,69.07 70.76,109.59 132.71,137.81 33.97,-116.4 -11.79,-226.15 -86.77,-333.48 -200.99,-165.81 -366.77,-201.32 -522.33,-199.07z"/>
    <path class="fil1 str0" d="M2984.19 687.42c-1.09,41.06 12.43,76.81 54.74,102.09"/>
    <path class="fil0 str0" d="M4008.15 1123.74c-27.58,50.16 -27.84,102.93 0,158.36 24.74,28.32 39.51,60.63 51.04,94.23 27.43,-14.48 39.54,-51.94 40.57,-106.01 -43.32,-44.07 -69.45,-94.58 -91.62,-146.58z"/>
    <path class="fil0 str0" d="M4176.91 1488.93c-53.25,44.69 -78.44,106.48 -85.79,179.11 2.28,65.34 19.29,123.31 37.63,180.62 53.81,-11.94 73.72,-58.72 55.69,-144.49 -34.81,-74.05 -28.62,-145.17 -7.53,-215.24z"/>
    <path class="fil0 str0" d="M3312.61 2644.89c87.82,28.97 180.51,37.27 283.48,1.88 220.79,-78.6 299.22,-241.32 352.94,-418.65 -47.88,69.13 -103.71,114.41 -180.22,97.62 -54.93,-43.58 -58.3,-88.72 -18.77,-135.17 271.93,-224.95 286.54,-462.77 157.7,-707.76 25.17,77.65 18.94,150.59 -13.14,219.65 -93.69,74.9 -142.91,11.71 -182.1,-82.6 -5.74,-115.81 49.37,-211.33 129.54,-298.5 89.21,-209.73 33.32,-366.88 -75.09,-505 6.67,96.88 7.54,192.47 -37.55,277.85 -24.28,49.26 -56.25,50.47 -91.99,28.16 41.64,-92.87 26.31,-194.17 -9.39,-298.5 -80.59,-113.34 -144.76,-228.24 -165.21,-347.31 0.23,-121.71 52.9,-202.22 133.29,-260.95 -136.99,12.22 -250.39,90.16 -347.31,214.02 -80.58,140.43 -81.5,264.64 -7.51,373.59 48.63,78.79 67.19,158.65 35.67,240.3 -46.7,-112.98 -108.74,-160.83 -178.35,-176.47 62.16,158.94 56.37,294.24 -13.14,407.38 -37.35,97.67 -32.42,190.64 7.51,279.72 40.7,202.15 -15.05,314.28 -103.25,396.12 184.88,70 369.77,140 554.65,210 -77.25,161.54 -154.5,323.08 -231.75,484.61z"/>
    <path class="fil2" d="M2944.47 2122.45c43.04,-60.25 86.07,-120.5 129.11,-180.75 257.48,-183.77 43.04,-443.1 135.56,-745.6 13.69,23.16 27.38,46.33 41.08,69.49 151.44,-151.47 157.69,-337.09 102.85,-537.1 150.37,163.35 235.47,347.82 179.58,577.91 32.02,-6.82 54.74,-33.76 68.56,-79.99 41.9,6.17 83.8,-6.62 125.7,-27.75 20.3,92.02 -9.53,166.15 -53.87,235.08 -53.45,96.95 -63.08,202.66 -47.34,313.44 30.25,95.07 75.79,163.94 171.41,146.93 7.38,90.82 -20.46,172.83 -88.16,244.88 -52.54,139.75 -54.03,237.01 34.28,254.67 -51.13,100.66 -135.81,153.78 -243.24,174.68 -171.41,-97.95 -342.83,-195.9 -514.24,-293.85 -13.76,-50.68 -27.52,-101.36 -41.28,-152.04z"/>
    <path class="fil0 str0" d="M1958.05 2577.07c319.36,124.9 555.99,29.69 723.49,-249.48 14.26,22.57 28.51,45.14 42.77,67.72 -0.97,-131.16 61.36,-253.39 310.07,-349.27 -33.98,39.79 -58.53,82.91 -46.33,139 9.04,26.55 33.07,29.12 69.22,12.29 44.14,-15.5 61.4,-49.82 78.14,-84.51 34.68,65.91 41.72,131.82 30.3,197.73 60.53,-27.07 111.15,-77.79 122.78,-221.65 80.52,-59.23 109.91,-158.41 103.65,-285.43 69.34,88.72 128.11,182.98 82.92,331.68 -8.58,55.6 8.88,105.62 38.27,153.08 37.2,134.01 16.44,252.81 -125.97,339.65 -43.64,27.61 -80.2,58.76 -76.54,110.03 0.77,49.18 37.92,60.64 87.7,59 40.18,-13.18 79.63,-31.53 118,-57.41 -166,223.32 -407.11,367.47 -835.57,314.14 -333.95,-69.18 -587.47,-215.92 -722.89,-476.55z"/>
    <path class="fil3" d="M2321.3 2756.95c138.83,-9.9 253.91,-72.05 343.21,-190.92 17.43,11.36 34.85,22.73 52.28,34.09 113.11,-21.31 178.57,-111.71 200.02,-265.93 53.27,56.41 81.96,127.29 34.09,243.2 84.94,-18.51 126.53,-84.56 150.01,-170.47 9.85,18.18 19.7,36.37 29.55,54.55 139.36,-28.37 203.46,-127.98 231.84,-261.39 61.4,157.08 27.64,277.05 -109.1,356.85 -29.6,7.25 -50.71,20.38 -54.55,45.46 25.08,15.94 52.78,20.08 81.83,18.18 -59.85,50 -119.71,100.01 -179.56,150.01 -14.32,24.24 -17.68,48.49 -2.27,72.73 28.33,14.05 55.48,8.27 81.83,-11.37 -24.26,71.15 -75.16,123.57 -172.74,143.19 14.71,-64.97 12.83,-85.06 -18.04,-80.69 -82.74,43.59 -165.78,35.64 -267.14,19.52 75.59,-43.77 98.15,-57.6 119.25,-122.95 -207.6,36 -384.23,28.98 -520.5,-34.09z"/>
    <path class="fil1 str0" d="M2208.68 2720.38c203.39,108.76 416.57,117.16 634.8,73.86 -23.58,42.71 -62.82,80.2 -119.77,111.79 85.92,54.14 188.35,17.43 289.45,-11.98 -1.13,54.48 -30.8,106.93 -83.84,157.7"/>
    <path class="fil1 str0" d="M2868.69 2222.96c-26.91,50.57 -47.99,101.14 -41.92,151.71 -7.9,41.53 -24.98,79.27 -83.84,99.81 -20.75,-30.55 -31.14,-66.27 -33.94,-105.8"/>
    <path class="fil1 str0" d="M3030.94 1966.99c135.21,20.58 221.72,-96.36 242.98,-292.99 -66.61,-189.95 13.62,-335.39 145.72,-465.12 -53.94,166.74 -8.76,326.39 105.8,481.09 152.83,242.68 92.43,412.67 -19.96,564.93"/>
   </g>
   <path class="fil1 str1" d="M2123.84 2261.85c-52.66,105.94 -129.51,72.03 -153.37,3.98 -32.97,-94.05 46.99,-222.62 203.59,-156.2 110.95,47.06 177.49,203.96 -17.83,350.88 -149.42,58.32 -289.87,16.23 -371.4,-170.59 -64.69,-136.92 -14.89,-264.71 139.23,-384.36 150.89,-76.1 337.17,-24.46 448.11,110.13"/>
   <g>
    <path class="fil1 str2" d="M1956.12 2799.24c25.27,46.55 59.85,81.46 98.7,111.03"/>
    <path class="fil1 str2" d="M2133.77 2965.79c77.47,60.66 166.18,96.97 264.01,113.5"/>
    <path class="fil1 str2" d="M2596.41 3150.84c148.79,39.38 300.89,45.78 456.47,17.27"/>
    <path class="fil1 str2" d="M3133.06 3144.67c50.58,-8.02 101.16,-21.27 151.75,-39.48"/>
    <path class="fil1 str2" d="M4111.12 2096.59c-3.23,30.11 -6.45,60.22 -9.68,90.32"/>
    <path class="fil1 str2" d="M4185.31 1922.4c34.3,188.2 31.17,373.99 -48.39,554.84 44.77,29.81 80.92,66.09 100.49,114.8 20.32,73.73 32.39,146.83 -57.18,212.11 -84.48,35.54 -140.56,17.23 -164.15,-62.71 35.19,-3.01 68.87,-9.81 99.6,-23.98 34.78,-33.39 30.04,-70.94 22.13,-108.82 -22.75,-3.69 -45.5,-7.38 -68.24,-11.07"/>
    <path class="fil1 str2" d="M4015.83 2740.4c-50.42,-24.38 -88.69,-65.92 -121.25,-108.16 75.26,-102.62 129.63,-210.95 167.55,-323.76"/>
    <path class="fil1 str2" d="M3456.45 3028.83c167.75,-110.83 320.52,-238.94 444.13,-400.7"/>
    <path class="fil1 str2" d="M3940.24 2686.1c-170.26,331.46 -409.2,514.96 -707.82,569.95"/>
    <path class="fil1 str2" d="M3447.57 3323.99c135.88,-34.35 248.62,-116.91 339.71,-244.59 66.53,-88.48 154.32,-111.04 258.18,-83.79 58.16,37.87 98.1,90.32 81.53,187.97 -31.06,83.31 -92.53,110.46 -172.12,104.18 -51.63,-17.41 -87.5,-54.2 -90.59,-131.35 9.45,-55.56 45.4,-73.58 99.65,-65.68 40.88,13.91 53.11,42.14 56.62,74.74"/>
   </g>
   <g>
    <path class="fil1 str3" d="M2513.04 1454.69c-125.02,-274.8 -339.76,-447.07 -643.34,-517.81 -313.38,-46.21 -574.78,-7.98 -806.53,78.46"/>
    <path class="fil1 str3" d="M843.5 1118.9c-251.3,129.6 -448.47,301.73 -561.74,539.78"/>
    <path class="fil1 str3" d="M18.14 2185.9c10.96,-219.35 49.79,-433.54 163.19,-633.92 -46.78,-6.88 -79.58,3.02 -107.39,18.9 -13.46,-108.31 48.19,-155.18 201.58,-126.98 -89.61,-38.01 -147.16,-89.76 -157.14,-161.9 -0.17,-70.46 41.93,-115.01 119.05,-138.09 33.09,7.1 62.41,20.49 73.01,65.08 -12.32,21.13 -37.12,28.74 -79.36,17.46 -30.93,48.48 -15.29,84.38 46.03,107.93 49.71,-1.36 85.53,-23.55 109.52,-63.49"/>
    <path class="fil1 str3" d="M2564.68 1598.43c64.19,249.09 9,471.23 -85.09,684.58 246.12,-124.83 401.29,-331.81 489.26,-599.49 -88.96,25.13 -174.04,56.73 -255.26,94.76 -41.54,63.82 -52.73,127.63 -48.35,191.45"/>
    <path class="fil1 str3" d="M2843.23 1718.71c16.82,-72.52 12.71,-146.04 -24.67,-221.14 -22.96,-20.81 -45.93,-29.78 -68.89,-14.46 13.42,21.85 9.84,40.3 -2.55,56.99 -33.06,-0.3 -65.22,-2.81 -74.85,-60.39 -3.82,-38.21 18.71,-58.18 48.48,-73.15"/>
    <path class="fil1 str3" d="M2796.15 475.74c-301.58,-336.78 -666.18,-486.17 -1114.43,-447.48 -72.7,16.24 -148.8,116.56 -122.43,196.9 35.11,56.38 77.7,81.01 128.5,70.68 56.03,-38.55 36.43,-77.1 -9.64,-115.65 112.01,-89.99 276.65,-65.95 436.91,-51.4"/>
    <path class="fil1 str3" d="M3014.61 1256.4c7.96,-392.38 -185.61,-706.98 -562.21,-950.93 -219.28,-115.39 -425.26,-164.24 -597.29,-43.39 -99.93,101.48 -167.1,207.82 -84.49,336.35 114.69,156.66 204.92,142.09 292.48,108.87 86.38,-55.58 105.18,-136.05 63.37,-238.86"/>
    <path class="fil1 str3" d="M1988.35 496.07c29.99,-8.86 57.48,-1.54 79.62,40.62 -1.18,50.37 -27.03,83.78 -90.99,90.99 -96.49,-30.29 -120.64,-94.17 -107.24,-175.49 25.5,-87.16 101.41,-123.91 201.48,-136.49 227.71,9.28 424.51,118.38 601.21,292.48 119.31,121.13 193.04,259.35 230.73,411.1 -93.35,-46.07 -174.26,-62.27 -242.11,-47.12 -113.94,31.79 -181.23,103.15 -126.74,277.85 76.85,92.96 156.91,115.15 238.86,95.87 56.79,-26.85 94.06,-63.46 120.24,-105.62 30.97,77.51 50.01,170.91 50.37,289.23"/>
    <path class="fil1 str3" d="M2661.05 1058.27c-30.24,47.26 -73.54,90.83 0,167.36 52.13,32.15 98.51,33.36 129.99,-45.5 -8.44,-44.38 -46.3,-35.79 -81.26,-32.42 70.31,-9.32 135.83,4.14 185.47,92.98"/>
    <path class="fil1 str3" d="M2594.32 980.3c-10.92,-12.39 -21.84,-24.77 -32.75,-37.16 -10.48,34.78 -33.64,53.09 -70.54,53.54 -51.96,-27.37 -56.38,-68.53 -26.45,-119.67 34.5,-39.23 83.2,-52.65 146.76,-39.05 46.63,32.59 79.16,71.23 88.81,119.67"/>
    <path class="fil1 str3" d="M2347.27 1033.68c-300.71,-255.13 -678,-345.13 -1141.96,-248.25 -318.96,86.86 -584.37,225.14 -775.79,434.44"/>
    <path class="fil1 str3" d="M961.19 760.6c-94.82,56.18 -186.83,132.06 -277.22,219.29 -88.84,39.01 -180.33,69.18 -304.11,-8.27 -83.23,-98.28 -93.82,-200.19 -22.76,-306.18 139.67,-71.27 243.1,-51.94 297.9,88.96"/>
    <path class="fil1 str3" d="M923.95 659.23c-112.4,77.23 -224.81,154.47 -337.21,231.7 -61.5,29.11 -112.95,12.04 -155.16,-47.58 -17.06,-33.1 -8.26,-66.2 24.83,-99.3 22.76,0.71 45.51,7.42 68.27,35.17"/>
    <path class="fil1 str3" d="M1166 779.22c-132.09,-50.41 -219.02,-138.14 -233.77,-285.49 2.64,-106.81 63.05,-192.6 177.91,-258.6 133.43,-24.12 253.01,7.19 355.83,105.51 88.56,69.04 181.47,77.08 275.15,74.47"/>
    <path class="fil1 str3" d="M1724.57 557.86c-122.93,-47.69 -248.95,-61.28 -378.59,-35.17"/>
    <path class="fil1 str3" d="M1540.45 473.04c-67.78,-16.84 -132.61,-39.58 -190.33,-76.54 -79.3,-37.41 -158.61,-53.79 -237.91,6.21 -37.5,62.06 -51.83,124.13 -2.07,186.19 47.58,39.91 95.16,50.17 142.75,6.21 33.14,-67.2 14.71,-102.54 -66.2,-99.3"/>
    <path class="fil1 str3" d="M1345.97 646.07c38.37,-3.14 76.73,-6.28 115.1,-9.42"/>
    <path class="fil1 str3" d="M1546.87 633.52c38.71,4.53 77.43,9.07 116.14,13.6"/>
    <path class="fil1 str3" d="M1419.21 843.83c31.04,-4.88 62.08,-9.77 93.12,-14.65"/>
    <path class="fil1 str3" d="M1582.44 836.51c36.27,6.28 72.55,12.56 108.82,18.84"/>
    <path class="fil1 str3" d="M2770.46 1876.73c-0.65,20.92 -1.31,41.84 -1.96,62.76"/>
    <path class="fil1 str3" d="M2831.27 1813.96c0,7.19 0,14.38 0,21.58"/>
    <path class="fil1 str3" d="M2438.01 1098.05c6.86,5.88 13.73,11.77 20.59,17.65"/>
    <path class="fil1 str3" d="M2630.53 748.07c-81.42,-122.21 -201.07,-214.23 -365.07,-271.24"/>
    <path class="fil1 str3" d="M930.99 1075.97c10.9,-6.54 21.8,-13.08 32.7,-19.62"/>
    <circle class="fil1 str3" cx="772.42" cy="484.79" r="71.45"/>
    <circle class="fil1 str3" cx="2369.73" cy="768.53" r="68.01"/>
   </g>
   <g>
    <g>
     <path class="fil4" d="M1665.9 2035.16c-324.01,95.93 -559.3,295.78 -697.72,609.12 -49.55,100.6 -75.46,201.19 -71.99,301.79 34.51,149.32 69.02,298.65 103.54,447.97 62.78,89.68 125.56,179.37 188.34,269.05 109.41,93.27 218.83,186.54 328.24,279.81 195.51,60.98 391.02,121.97 586.53,182.95 157.03,8.32 314.06,16.65 471.09,24.97 66.07,-12.85 132.15,-25.7 198.22,-38.54 156.81,-56.52 298.07,-124.15 422.6,-203.73 0.12,-23.73 0.23,-47.46 0.35,-71.19 -101.92,-11.24 -219.84,-50.47 -321.77,-61.7 -94.7,-6.42 -173.4,15.16 -268.1,8.74 -126.8,-12.84 -253.6,-25.68 -380.4,-38.52 -39.32,-63.4 -78.65,-126.8 -117.97,-190.2 -186.19,-45.74 -372.38,-91.49 -558.56,-137.23 -83.46,-247.98 -166.93,-495.97 -250.39,-743.95 75.44,-129.21 150.88,-258.42 226.31,-387.62 47.22,-83.9 94.45,-167.8 141.68,-251.7z"/>
     <path class="fil5" d="M2009.68 3168.04c-101.56,-41.82 -203.13,-83.64 -304.69,-125.46 -78.99,-97.58 -157.99,-195.16 -236.98,-292.74 -35.18,-59.08 -70.36,-118.16 -105.55,-177.24 57.09,-106.21 114.18,-212.42 171.26,-318.63 31.86,-64.39 63.73,-128.78 95.59,-193.17 -57.71,4.14 -113.52,15.22 -161.31,55.76 -141.27,187.24 -274.54,377.14 -322.61,595.44 -27.98,116.17 -15.59,232.34 7.97,348.5 46.18,215.36 181.19,354.59 335.68,477.12 143.46,42.94 299.99,80.8 347.7,160.97 19.25,-22.41 41.66,-42.44 81.56,-49.36 64.36,8.09 108.8,41.07 152.39,75.12 67.97,28.62 135.93,57.23 203.9,85.85 94.44,15.74 188.87,31.48 283.31,47.22 59.38,-19.32 118.76,-38.63 178.14,-57.95 104.45,10.02 208.91,20.03 313.36,30.05 69.4,3.58 138.79,7.15 208.19,10.73 60.1,-19.32 120.19,-38.63 180.29,-57.95 4.17,-49.14 -11.07,-95.51 -42.93,-139.51 -52.94,-68.68 -105.88,-137.36 -158.83,-206.05 -51.05,-41.71 -112.32,-62.96 -180.29,-70.83 -55.65,36.55 -113.58,61.68 -176,64.39 -59.63,1.08 -104.49,-19.97 -143.8,-49.36 14.23,-37.61 55.53,-50.22 113.75,-47.22 -55.83,-53.03 -136.59,-69.8 -229.65,-68.68 -37.2,11.45 -74.4,22.89 -111.61,34.34 -58.31,-45.5 -104.57,-71.73 -145.95,-90.14 -117.63,-44.69 -235.26,-41.43 -352.9,-41.2z"/>
     <path class="fil6 str4" d="M909.45 2955.59c46.79,35.83 79.46,81.75 108.07,130.58 47.19,357.57 262.79,605.68 673.15,727.19 65.23,-12.27 132.81,13.25 207.12,146.34 86.3,20.86 172.6,38.91 258.91,92.31 200.2,68.21 414.23,81.12 637.13,58.53 -423.69,156.13 -861.19,185.22 -1330.55,-78.8 -394.16,-260.93 -570.56,-623.47 -553.83,-1076.15z"/>
     <line class="fil1 str4" x1="1400.63" y1="3822.64" x2="1464.3" y2= "3867.11" />
     <line class="fil1 str4" x1="1509.78" y1="3884.29" x2="1552.23" y2= "3911.57" />
     <path class="fil7" d="M2056.28 3682.54c162.2,108.4 355.45,141.11 595.5,59.76 115.91,-35.5 255.32,-26.12 424.75,40.55 103.19,50.31 230.4,32.57 362.85,0 -104.75,91.58 -233.26,146.61 -401.27,140.87 -95.22,-62.37 -200.62,-84.02 -320.16,-49.09 -320.11,113.55 -521.59,15.5 -661.66,-192.1z"/>
     <path class="fil8 str4" d="M1700.88 2029.84c-179.97,109.98 -303.54,262.26 -394.09,439.31 -102.56,283.02 -71.24,508.15 32.3,702.04 109.16,149.3 247.73,236.48 407.01,279.95 64.6,29.72 129.21,39.05 193.81,40.92 184.17,-31.02 272.24,40.48 370.4,101.21 108.66,106.48 271.12,72.26 452.23,-10.77 -158.35,-22.1 -296.64,-66.48 -404.86,-144.28 -83.11,-103.5 -217.14,-110.83 -351.02,-118.44 -262.97,3.83 -450.37,-67.9 -568.52,-208.89 -72.87,-132.94 -83.38,-262.41 -55.99,-389.78 52.74,214.15 201.73,349.86 404.86,441.46 76.09,3.59 152.18,7.18 228.27,10.77 -5.32,-50.25 -30.17,-100.5 -68.91,-150.74 -152.46,4.98 -256.27,-58.14 -325.18,-170.13 -8.23,-69.07 -20.5,-136.51 -47.38,-198.12 -82.79,-80.56 -57.93,-150.36 -27.99,-219.66 29.85,-16.82 53.39,-39.93 64.6,-75.37 -15.09,-119.35 34.37,-225.11 90.45,-329.48z"/>
     <path class="fil9 str4" d="M3033.13 3663.26c-25.61,-25.61 -51.23,-51.23 -76.84,-76.84 99.6,-33.66 190.59,-84.53 275.24,-148.1 85.45,-24.5 180.91,-30.18 308.77,25.15 89.42,21.19 178.83,-1.09 268.25,-44.71 -69.7,92.02 -143,182.64 -290.6,244.5 -92.21,32.61 -184.42,30.98 -276.63,-11.18 -70.75,-39.78 -139.92,-28.79 -208.17,11.18z"/>
    </g>
    <path class="fil1 str5" d="M1120.19 2793.62c0,20.09 0,40.17 0,60.26"/>
    <path class="fil1 str5" d="M1192.5 3187.3c104.1,199.27 248.8,348.91 457.95,419.79 66.33,-9.93 116.01,18.98 164.7,50.22 27.05,53.18 60.38,105.32 122.52,152.65"/>
    <path class="fil1 str5" d="M2011.05 3858.16c9.45,7.48 18.91,14.97 28.36,22.45"/>
    <path class="fil1 str5" d="M2586 4028.34c25.41,-1.58 50.82,-3.15 76.23,-4.73"/>
    <path class="fil1 str5" d="M2697.09 4031.29c9.85,-10.64 19.7,-21.27 29.55,-31.91"/>
    <path class="fil1 str5" d="M2915.88 4052.86c44.78,-19.54 89.56,-39.08 134.34,-58.62"/>
    <path class="fil1 str5" d="M1700.93 2026.7c-413.12,126.38 -748.35,400.72 -794.71,922.81"/>
    <path class="fil1 str5" d="M2030.5 3172.13c177.86,-16.15 339.99,9.64 463.89,137.39 100.4,-47.71 206.79,-77.82 356.04,17.73 -54.61,6.36 -95.4,17.07 -121.14,32.5 50.9,54.06 107.73,93.81 193.53,63.53 39.99,-25.9 82.99,-49.12 149.21,-51.71 59.82,2.61 117.41,27.44 174.33,59.1"/>
    <path class="fil1 str5" d="M3030.89 3658.08c-34.25,24.47 -73.37,46.99 -136.88,59.76 172.68,85.2 349.66,116.61 534,55.91 -70.84,75.03 -163.83,127.91 -293.03,144.59 -393.86,-103.67 -241.74,-63.48 -618.83,-11.57 -115.67,22.63 -231.34,-2.4 -347.01,-84.82 -80.57,-119.1 -164.4,-228.43 -250.81,-330.02"/>
    <path class="fil1 str5" d="M2666 3731.65c-153.94,80.41 -509.89,56.34 -581.7,-40.23"/>
    <path class="fil1 str5" d="M2750.86 3569.36c-172.57,-11.82 -292.26,-59.52 -383.58,-126.47 136.57,-69.63 257.34,-106.74 364.89,-80.62"/>
    <path class="fil1 str5" d="M1477.09 2404.34c-35.67,37.37 -54.85,76.01 -52.3,116.31"/>
    <path class="fil1 str5" d="M1422.09 2575.65c1.5,10.82 3.01,21.64 4.51,32.46"/>
    <path class="fil1 str5" d="M1510.84 2785.13c7.21,52.57 31.55,76.59 74.05,70.34"/>
    <path class="fil1 str6" d="M1599.56 2457.24c5.15,25.36 10.29,50.73 15.44,76.09 81.46,-44.2 147.77,-29.47 202.91,28.67 22.64,66.54 10.84,113.76 -26.47,146.67 -50.6,39.08 -89.01,23.81 -123.51,-8.82 -22.92,-41.87 -5.85,-66.45 25.36,-84.91 19.96,-3.17 36.96,-0.39 45.21,19.85"/>
   </g>
   <g>
    <g>
     <path class="fil10" d="M161.04 2768.16c2.3,66.45 4.15,133.04 27.02,193.62 38.15,115.95 115.89,214.69 220.64,301.69 7.21,98.83 3.32,203.21 65.29,274.67 68.24,39.96 68.73,-45.55 58.54,-150.84 171.03,235.82 356.97,439.31 580.86,560.59 -138.4,-177.88 -263.52,-360.59 -353.47,-556.09 28.58,-254.36 0.29,-495.6 -99.06,-720.44 134.5,-148.48 254.04,-306.93 362.47,-472.79 75.45,-75.47 208.18,-134.57 364.72,-186.86 135.12,-92.67 242.22,-199.34 321.95,-319.7 -202.63,-23.26 -405.25,-46.53 -607.87,-69.79 -219.13,216.13 -438.27,432.27 -657.4,648.4 -94.56,165.85 -189.12,331.7 -283.67,497.56z"/>
     <g style="clip-path:url(#id0)">
      <g>
       <path id="_1" class="fil11 str7" d="M176.12 3092.88c43.33,-36.62 86.66,-73.25 129.99,-109.87 40.97,-31.54 71.21,-103.88 92.85,-208.9 7.45,92.53 23.37,181.43 85.11,250.69 48.94,192.55 51.55,401.93 68.96,606.31 -76.34,40.23 -139.63,76.12 -215.97,116.35 -53.64,-218.19 -107.29,-436.38 -160.93,-654.57z"/>
       <path class="fil12 str7" d="M805.94 1924.43c41.52,26.1 83.04,52.2 124.57,78.3 138.83,-5.1 236.63,-79.46 304.3,-204.65 10.68,-48.05 21.35,-96.1 32.03,-144.14 -153.63,90.16 -307.27,180.33 -460.9,270.49z"/>
      </g>
     </g>
     <path class="fil1 str7" d="M161.04 2768.16c2.3,66.45 4.15,133.04 27.02,193.62 38.15,115.95 115.89,214.69 220.64,301.69 7.21,98.83 3.32,203.21 65.29,274.67 68.24,39.96 68.73,-45.55 58.54,-150.84 171.03,235.82 356.97,439.31 580.86,560.59 -138.4,-177.88 -263.52,-360.59 -353.47,-556.09 28.58,-254.36 0.29,-495.6 -99.06,-720.44 134.5,-148.48 254.04,-306.93 362.47,-472.79 75.45,-75.47 208.18,-134.57 364.72,-186.86 135.12,-92.67 242.22,-199.34 321.95,-319.7 -202.63,-23.26 -405.25,-46.53 -607.87,-69.79 -219.13,216.13 -438.27,432.27 -657.4,648.4 -94.56,165.85 -189.12,331.7 -283.67,497.56z"/>
     <g>
      <path class="fil13" d="M95.84 2916.88c198.66,-65.17 381.28,-180.63 508.19,-470.82 34.27,-175.35 102.04,-333.57 276.51,-437.19 123.9,-158.15 240.37,-230.84 351.25,-239.15 146.53,9.66 288.75,7.49 422.24,-18.68 43.4,-24.53 93.52,-45.03 153.2,-59.79 52.36,21.01 105.51,39.25 164.41,37.37 196.81,-43.96 349.41,16.56 474.56,141.99 -28.84,-163.88 -93.66,-289.88 -184.39,-388.61 -71.74,-88.25 -166.76,-167.41 -229.55,-192 -52.32,-20.49 -99.61,10.21 -166.01,33.34 -73.92,-127.18 -150.69,-250.37 -273.85,-308.63 -47.08,-3.54 -93.11,-1.88 -136.93,10.87 -106.06,88.37 -199.29,182.23 -282.55,280.37 -44.92,-16.66 -89.84,-33.33 -134.75,-49.99 -81.87,87.66 -163.73,175.32 -245.6,262.99 -95.04,-33.82 -166.97,-15.61 -221.69,41.3 -190.81,218.46 -396.13,420.29 -467.29,775.92 -16.06,65.2 -28.54,130.41 -30.43,195.61 9.53,36.76 26.33,71.91 65.2,102.15 -38.07,95.65 -63.16,190.57 -42.53,282.96z"/>
      <g style="clip-path:url(#id1)">
       <g>
        <polygon id="_1_0" class="fil14" points="665.88,2413.18 565.55,2338.86 559.98,2210.67 561.84,2013.74 623.15,1926.42 625,1876.26 502.39,1865.12 806.46,1523.11 803.63,1333.8 1134.22,1073.85 1614.56,1285.77 1967.75,1788.71 "/>
        <path class="fil15" d="M476.34 1557.99c14.49,32.76 28.98,65.52 43.47,98.28 16.11,7.18 31.16,5.29 45.36,-3.78 20.12,-19.32 41.27,-32.84 64.26,-35.91 22.05,10.14 44.1,12.69 66.15,9.45 37.16,-35.3 74.31,-70.61 111.47,-105.91 -11.15,-36.64 -22.31,-73.29 -33.46,-109.93 39.34,8.22 78.68,16.44 118.01,24.66 5.74,10.83 11.47,21.67 17.21,32.5 34.41,5.26 68.83,-32.69 103.24,-64.05 16.59,5.31 28.5,19.05 36.33,40.15 40.93,-47.47 81.86,-94.93 122.79,-142.4 9.38,-71.53 18.76,-143.06 28.14,-214.59 17,52.77 34.01,105.54 51.01,158.31 18.5,6.26 40.09,8.81 38.07,39.69 -8.9,16.31 -17.79,32.62 -26.69,48.93 -5.11,22.05 0.5,32.81 20.46,28.47 28.59,-33.11 60.04,-63.77 97.86,-88.96 33.57,-31.46 69.69,-27.77 108.54,13.34 34.9,42.17 68.67,86.22 95.19,142.35 19.84,12.4 32.71,5.45 40.03,-16.9 -14.29,-41.02 -26.63,-82.04 -24.17,-123.07 7.72,-16.49 21.75,-21.5 44.76,-10.17 14.33,14.63 30.22,34.19 52.9,75.28 17.65,14.47 28.06,7.21 34.59,-11.7 -7.41,-26.62 -6.22,-48.22 3.05,-65.11 28.07,2.86 54.07,23.33 79.35,49.85 28.06,-14.7 56.11,-29.39 84.17,-44.09 1.64,16.21 3.27,32.43 4.91,48.64 24.65,42.43 49.29,84.86 73.94,127.29 16.05,-17.82 31.77,-36.29 54.29,-41.18 21.9,1.2 46.63,29.32 71.13,55.22 10.44,5.85 18.37,5.64 22.46,-3.74 -3.49,-14.18 -6.38,-28.28 -0.94,-41.18 31.51,-11.86 63.02,-23.71 94.53,-35.57 -73.37,-126.08 -146.74,-252.16 -220.12,-378.23 -167.52,-97.05 -335.04,-194.09 -502.55,-291.13 -339.92,278.4 -679.84,556.81 -1019.77,835.21z"/>
       </g>
      </g>
      <path class="fil1 str8" d="M95.84 2916.88c198.66,-65.17 381.28,-180.63 508.19,-470.82 34.27,-175.35 102.04,-333.57 276.51,-437.19 123.9,-158.15 240.37,-230.84 351.25,-239.15 146.53,9.66 288.75,7.49 422.24,-18.68 43.4,-24.53 93.52,-45.03 153.2,-59.79 52.36,21.01 105.51,39.25 164.41,37.37 196.81,-43.96 349.41,16.56 474.56,141.99 -28.84,-163.88 -93.66,-289.88 -184.39,-388.61 -71.74,-88.25 -166.76,-167.41 -229.55,-192 -52.32,-20.49 -99.61,10.21 -166.01,33.34 -73.92,-127.18 -150.69,-250.37 -273.85,-308.63 -47.08,-3.54 -93.11,-1.88 -136.93,10.87 -106.06,88.37 -199.29,182.23 -282.55,280.37 -44.92,-16.66 -89.84,-33.33 -134.75,-49.99 -81.87,87.66 -163.73,175.32 -245.6,262.99 -95.04,-33.82 -166.97,-15.61 -221.69,41.3 -190.81,218.46 -396.13,420.29 -467.29,775.92 -16.06,65.2 -28.54,130.41 -30.43,195.61 9.53,36.76 26.33,71.91 65.2,102.15 -38.07,95.65 -63.16,190.57 -42.53,282.96z"/>
      <path class="fil1 str7" d="M76.14 2492.67c147.35,-99.51 281.95,-227.69 393.6,-407.53"/>
      <path class="fil1 str7" d="M384.56 2229.58c5.75,154.72 -44.19,276.95 -145.53,369.2"/>
      <path class="fil1 str7" d="M545.41 2266.35c-6.13,18.89 -12.26,37.79 -18.38,56.68"/>
      <path class="fil1 str7" d="M471.88 1872.64c110.3,-113.87 220.6,-227.75 330.9,-341.62"/>
      <path class="fil1 str7" d="M943.71 1563.18c79.66,-83.75 159.32,-167.49 238.98,-251.24"/>
      <path class="fil1 str7" d="M1604.4 1278.07c70.98,95.49 141.96,190.98 212.94,286.47"/>
      <path class="fil1 str7" d="M2026.79 1558.59c36.26,47.49 72.51,94.98 108.77,142.47"/>
      <path class="fil1 str7" d="M1967.17 1464.54c-30.64,-48 -61.28,-96 -91.92,-144"/>
      <path class="fil1 str7" d="M1466.1 1621.4c109.85,8.58 218.74,22.47 321.71,68.94"/>
     </g>
    </g>
    <line class="fil1 str7" x1="484.21" y1="3010.01" x2="656" y2= "2676.14" />
    <line class="fil1 str7" x1="659.24" y1="3236.91" x2="759.72" y2= "3402.22" />
    <line class="fil1 str7" x1="1087.1" y1="1963.88" x2="1020.38" y2= "2197.39" />
   </g>
  </g>
 </g>
</svg>
